<mxfile host="app.diagrams.net" modified="2022-12-15T09:29:28.308Z" agent="5.0 (Windows NT 10.0; Win64; x64) AppleWebKit/537.36 (KHTML, like Gecko) Chrome/108.0.0.0 Safari/537.36" version="20.7.2" etag="xU2fgqNBTIsp8SOd9_fu" type="github">
  <diagram id="GITchyAoY5styEEp8QkO" name="Trang-1">
    <mxGraphModel dx="880" dy="452" grid="1" gridSize="10" guides="1" tooltips="1" connect="1" arrows="1" fold="1" page="1" pageScale="1" pageWidth="827" pageHeight="1169" math="0" shadow="0">
      <root>
        <mxCell id="0" />
        <mxCell id="1" parent="0" />
        <mxCell id="O05cEdwsyOfzaWefe0lu-4" value="" style="edgeStyle=orthogonalEdgeStyle;rounded=0;orthogonalLoop=1;jettySize=auto;html=1;fontSize=14;entryX=0.5;entryY=0;entryDx=0;entryDy=0;" edge="1" parent="1" source="O05cEdwsyOfzaWefe0lu-1" target="O05cEdwsyOfzaWefe0lu-3">
          <mxGeometry relative="1" as="geometry">
            <mxPoint x="400" y="170" as="targetPoint" />
          </mxGeometry>
        </mxCell>
        <mxCell id="O05cEdwsyOfzaWefe0lu-1" value="&lt;span id=&quot;docs-internal-guid-5875afa1-7fff-f918-396f-68e03493ff80&quot;&gt;&lt;span style=&quot;font-family: Arial; background-color: transparent; font-weight: 700; font-variant-numeric: normal; font-variant-east-asian: normal; vertical-align: baseline;&quot;&gt;&lt;font color=&quot;#1a9988&quot; style=&quot;font-size: 14px;&quot;&gt;Use API to create new account&lt;/font&gt;&lt;/span&gt;&lt;/span&gt;" style="rounded=0;whiteSpace=wrap;html=1;" vertex="1" parent="1">
          <mxGeometry x="340" y="90" width="180" height="60" as="geometry" />
        </mxCell>
        <mxCell id="O05cEdwsyOfzaWefe0lu-6" value="" style="edgeStyle=orthogonalEdgeStyle;rounded=0;orthogonalLoop=1;jettySize=auto;html=1;fontSize=14;entryX=0.5;entryY=0;entryDx=0;entryDy=0;" edge="1" parent="1" source="O05cEdwsyOfzaWefe0lu-3" target="O05cEdwsyOfzaWefe0lu-5">
          <mxGeometry relative="1" as="geometry">
            <mxPoint x="400" y="250" as="targetPoint" />
          </mxGeometry>
        </mxCell>
        <mxCell id="O05cEdwsyOfzaWefe0lu-3" value="&lt;font color=&quot;#1a9988&quot; style=&quot;font-size: 14px;&quot; face=&quot;Arial&quot;&gt;&lt;b&gt;Login with new account&lt;/b&gt;&lt;/font&gt;" style="whiteSpace=wrap;html=1;rounded=0;" vertex="1" parent="1">
          <mxGeometry x="340" y="170" width="180" height="60" as="geometry" />
        </mxCell>
        <mxCell id="O05cEdwsyOfzaWefe0lu-8" value="" style="edgeStyle=orthogonalEdgeStyle;rounded=0;orthogonalLoop=1;jettySize=auto;html=1;fontSize=14;" edge="1" parent="1" source="O05cEdwsyOfzaWefe0lu-5" target="O05cEdwsyOfzaWefe0lu-7">
          <mxGeometry relative="1" as="geometry" />
        </mxCell>
        <mxCell id="O05cEdwsyOfzaWefe0lu-5" value="&lt;font size=&quot;1&quot; color=&quot;#1a9988&quot;&gt;&lt;b style=&quot;font-size: 14px;&quot;&gt;Change password at 1st time login&lt;/b&gt;&lt;/font&gt;" style="whiteSpace=wrap;html=1;rounded=0;" vertex="1" parent="1">
          <mxGeometry x="340" y="250" width="180" height="60" as="geometry" />
        </mxCell>
        <mxCell id="O05cEdwsyOfzaWefe0lu-10" value="" style="edgeStyle=orthogonalEdgeStyle;rounded=0;orthogonalLoop=1;jettySize=auto;html=1;fontSize=14;entryX=0.5;entryY=0;entryDx=0;entryDy=0;" edge="1" parent="1" source="O05cEdwsyOfzaWefe0lu-7" target="O05cEdwsyOfzaWefe0lu-9">
          <mxGeometry relative="1" as="geometry">
            <mxPoint x="400" y="400" as="targetPoint" />
          </mxGeometry>
        </mxCell>
        <mxCell id="O05cEdwsyOfzaWefe0lu-7" value="&lt;font style=&quot;font-size: 14px;&quot; color=&quot;#1a9988&quot;&gt;&lt;b&gt;Login with new password&lt;/b&gt;&lt;/font&gt;" style="whiteSpace=wrap;html=1;rounded=0;" vertex="1" parent="1">
          <mxGeometry x="340" y="330" width="180" height="50" as="geometry" />
        </mxCell>
        <mxCell id="O05cEdwsyOfzaWefe0lu-9" value="&lt;b&gt;&lt;font color=&quot;#1a9988&quot; style=&quot;font-size: 14px;&quot;&gt;Change password&lt;/font&gt;&lt;/b&gt;" style="whiteSpace=wrap;html=1;rounded=0;" vertex="1" parent="1">
          <mxGeometry x="340" y="400" width="180" height="60" as="geometry" />
        </mxCell>
      </root>
    </mxGraphModel>
  </diagram>
</mxfile>
